# xmcd CD database file
#
# Track frame offsets:
#	150
#	12096
#	30257
#	49291
#	85867
#	98392
#	120867
#
# Disc length: 1803 seconds
#
# Revision: 0
# Processed by: cddbd v1.4PL0 Copyright (c) Steve Scherf et al.
# Submitted via: CDex 1.51
#
DISCID=3c070907
DTITLE=Hudson Bay - Stories About Westmanship And Native Americans
DYEAR=1900
DGENRE=Country
TTITLE0=Have You Ever Seen The Rain
TTITLE1=Seminole Wind
TTITLE2=The Thunder Rolls
TTITLE3=Kaw Liga - Apache
TTITLE4=East Bound And Down
TTITLE5=Good Hearted Woman
TTITLE6=Raw Hide
EXTD=
EXTT0=
EXTT1=
EXTT2=
EXTT3=
EXTT4=
EXTT5=
EXTT6=
PLAYORDER=
